
<svg width="283" height="283" viewBox="0 0 283 283" fill="none" xmlns="http://www.w3.org/2000/svg">
<path d="M181.298 154.147C174.394 153.621 167.471 153.35 160.546 153.329C159.423 153.325 158.301 153.333 157.178 153.343C154.147 153.369 151.116 153.439 148.086 153.561C145.011 153.437 141.933 153.368 138.854 153.343C137.339 153.33 135.823 153.331 134.307 153.343C127.824 153.392 121.341 153.655 114.874 154.147C112.874 154.297 110.861 154.475 108.865 154.752C109.415 157.061 110.183 159.311 111.065 161.356C111.683 162.779 112.479 164.174 113.465 165.411C114.519 166.729 115.783 167.869 117.26 168.67C120.106 170.21 123.401 169.533 126.442 169.196C129.869 168.815 133.332 168.651 136.778 168.506C143.8 168.215 150.836 168.256 157.854 168.642C164.031 168.987 170.54 170.31 176.694 169.11C180.803 168.31 182.38 165.138 183.607 161.515C184.385 159.22 185.066 156.892 185.648 154.543C184.198 154.379 182.744 154.256 181.298 154.147ZM127.981 160.888C129.148 160.229 130.286 159.519 131.371 158.729C131.849 158.38 133.038 157.279 133.598 158.146C134.151 159.004 132.701 159.754 132.166 160.089C131.029 160.8 129.858 161.45 128.654 162.041C127.89 162.416 127.225 161.314 127.981 160.888ZM141.165 158.918C137.968 161.906 133.288 164.336 129.245 165.954C128.576 166.222 128.321 165.245 128.796 164.89C132.226 162.329 136.76 159.616 140.902 158.467C141.157 158.397 141.364 158.732 141.165 158.918Z" fill="#6AC0AE"/>
<path d="M90.4433 119.243C97.1011 119.564 103.535 117.394 109.868 115.653C115.779 114.029 122.028 112.674 128.089 114.319C138.029 117.018 145.98 126.45 146.866 136.734H149.137C148.414 127.668 142.664 119.173 134.796 114.671C129.8 111.812 124.194 110.842 118.501 111.518C111.962 112.295 105.797 114.703 99.3892 116.088C93.53 117.355 87.6541 117.364 82.0512 115.05C76.9989 112.964 72.548 109.323 69.3495 104.905C62.022 94.7836 61.8944 81.3189 66.5646 70.0494C69.7002 62.4822 74.9867 56.0936 81.3099 50.9578L88.3864 58.8266C90.3922 61.0573 93.8583 61.2408 96.089 59.235L110.671 46.1207C112.902 44.1149 113.086 40.6487 111.08 38.4179L110.768 38.0716L93.5789 18.9575L93.2674 18.6111C91.2616 16.3805 87.795 16.197 85.5648 18.2028L70.982 31.3167C68.7516 33.3227 68.5678 36.789 70.5739 39.0196L79.7876 49.2648C74.6606 53.4424 70.2084 58.4117 66.9233 64.1844C60.6749 75.1645 58.8877 89.1832 64.3246 100.851C69.0189 110.924 79.1709 118.699 90.4433 119.243ZM86.2472 21.7727L86.3999 21.6356C87.2687 20.8546 88.6182 20.9261 89.3993 21.7944L107.506 41.9281C108.287 42.7966 108.215 44.1464 107.346 44.9275L107.194 45.0646C106.325 45.846 104.975 45.7745 104.194 44.9057L86.0882 24.7723C85.3073 23.9036 85.3787 22.5541 86.2472 21.7727ZM80.8258 26.6482L80.9785 26.5111C81.847 25.7302 83.1968 25.8016 83.9777 26.67L102.084 46.8037C102.865 47.672 102.793 49.0219 101.925 49.803L101.772 49.9401C100.904 50.7215 99.5541 50.65 98.773 49.7813L80.667 29.6479C79.8856 28.779 79.9573 27.4295 80.8258 26.6482Z" fill="#1F193D"/>
<path d="M112.003 185.477C105.723 185.477 100.633 190.567 100.633 196.847C100.633 203.127 105.723 208.217 112.003 208.217C118.283 208.217 123.373 203.127 123.373 196.847C123.373 190.567 118.283 185.477 112.003 185.477ZM119.079 203.923C117.266 205.735 114.768 206.853 112.003 206.854C109.238 206.853 106.74 205.735 104.927 203.923C103.115 202.11 101.996 199.612 101.996 196.847C101.996 194.081 103.115 191.584 104.927 189.771C106.74 187.959 109.237 186.84 112.003 186.84C114.768 186.84 117.266 187.959 119.079 189.771C120.891 191.584 122.009 194.081 122.01 196.847C122.009 199.612 120.891 202.11 119.079 203.923Z" fill="#1F193D"/>
<path d="M183.371 185.477C177.092 185.477 172.001 190.567 172.001 196.847C172.001 203.127 177.091 208.217 183.371 208.217C189.651 208.217 194.741 203.127 194.742 196.847C194.741 190.567 189.651 185.477 183.371 185.477ZM190.447 203.923C188.634 205.735 186.137 206.853 183.371 206.854C180.606 206.853 178.109 205.735 176.296 203.923C174.484 202.11 173.365 199.612 173.365 196.847C173.365 194.081 174.484 191.584 176.296 189.771C178.109 187.959 180.606 186.84 183.371 186.84C186.137 186.84 188.634 187.959 190.447 189.771C192.259 191.584 193.378 194.081 193.378 196.847C193.378 199.612 192.259 202.11 190.447 203.923Z" fill="#1F193D"/>
<path d="M93.9863 217.795C93.6357 217.736 93.2325 217.892 93.1345 218.303C91.4042 225.557 88.8828 233.964 83.3023 241.324C77.7939 248.591 70.4617 253.655 62.0974 255.971C61.6273 256.101 61.4834 256.54 61.5841 256.907C61.6685 257.215 61.9285 257.48 62.2894 257.48C62.3576 257.48 62.4294 257.47 62.5045 257.45C79.2252 252.906 92.7095 236.527 94.5675 218.503C94.61 218.09 94.3064 217.85 93.9863 217.795Z" fill="#1F193D"/>
<path d="M233.976 255.972C225.595 253.652 218.263 248.587 212.771 241.325C207.184 233.938 204.666 225.543 202.939 218.304C202.841 217.892 202.435 217.739 202.083 217.797C201.765 217.851 201.463 218.09 201.506 218.504C203.364 236.528 216.848 252.907 233.569 257.45C233.644 257.471 233.716 257.48 233.784 257.48C234.145 257.48 234.405 257.216 234.49 256.907C234.59 256.541 234.446 256.102 233.976 255.972Z" fill="#1F193D"/>
<path d="M74.2 233.312C74.2074 233.312 74.2153 233.312 74.223 233.312C75.4101 233.277 76.52 232.957 77.593 232.649L77.8249 232.584C78.693 232.341 79.6768 232.066 80.0865 231.221C80.2119 230.963 80.1349 230.675 79.9033 230.535C79.0807 230.04 78.1135 230.347 77.2617 230.618L76.9774 230.708C75.8767 231.05 74.837 231.373 73.8572 231.977C73.5323 232.177 73.4699 232.545 73.5525 232.821C73.6438 233.126 73.8904 233.312 74.2 233.312Z" fill="#1F193D"/>
<path d="M70.9733 237.577C70.6032 237.63 70.3602 237.878 70.3231 238.24C70.2819 238.643 70.5077 239.156 70.957 239.32C71.4285 239.49 71.9775 239.573 72.5538 239.573C74.3228 239.573 76.3419 238.791 77.1099 237.373C77.2084 237.191 77.1916 236.936 77.0683 236.754C76.9631 236.598 76.7984 236.518 76.6197 236.54C76.0132 236.607 75.4299 236.79 74.8661 236.967C74.5648 237.061 74.2537 237.159 73.9431 237.237C73.3488 237.388 72.7429 237.428 72.1572 237.467C71.771 237.493 71.3717 237.519 70.9733 237.577Z" fill="#1F193D"/>
<path d="M224.34 242.133C224.861 242.377 225.418 242.482 225.979 242.482C227.375 242.482 228.793 241.827 229.738 241.018C229.905 240.876 229.95 240.627 229.852 240.398C229.757 240.175 229.561 240.048 229.342 240.066C228.485 240.153 227.642 240.251 226.93 240.335C226.689 240.364 226.44 240.381 226.2 240.397C225.641 240.436 225.063 240.475 224.521 240.661C224.203 240.77 223.959 241.107 223.94 241.462C223.924 241.762 224.07 242.007 224.34 242.133Z" fill="#1F193D"/>
<path d="M222.843 236.695C222.922 236.695 223.005 236.684 223.093 236.662L223.327 236.602C224.698 236.255 225.992 235.928 227.189 235.101C227.404 234.953 227.5 234.688 227.427 234.443C227.358 234.207 227.156 234.055 226.899 234.046C225.439 234.002 224.163 234.426 222.816 234.878L222.617 234.944C222.072 235.126 221.912 235.646 222.035 236.065C222.132 236.392 222.417 236.695 222.843 236.695Z" fill="#1F193D"/>
<path d="M150.89 176.433H142.568C139.511 176.433 137.023 178.92 137.023 181.977C137.023 185.035 139.511 187.522 142.568 187.522H150.89C153.948 187.522 156.435 185.035 156.435 181.977C156.435 178.92 153.948 176.433 150.89 176.433ZM150.89 186.234H142.568C140.227 186.234 138.312 184.318 138.312 181.977C138.312 179.636 140.227 177.721 142.568 177.721H150.89C153.231 177.721 155.147 179.636 155.147 181.977C155.147 184.318 153.231 186.234 150.89 186.234Z" fill="#1F193D"/>
<path d="M93.0562 167.034H88.9256V162.904C88.9256 159.067 85.8038 155.944 81.9667 155.944H80.3507C76.5131 155.944 73.3913 159.067 73.3913 162.904V167.034H69.2614C65.4236 167.034 62.3018 170.156 62.3018 173.993V175.609C62.3018 179.447 65.4236 182.569 69.2614 182.569H73.3913V186.699C73.3913 190.536 76.5131 193.658 80.3507 193.658H81.9667C85.8038 193.658 88.9256 190.536 88.9256 186.699V182.569H93.0562C96.8938 182.569 100.015 179.447 100.015 175.609V173.993C100.015 170.156 96.8938 167.034 93.0562 167.034ZM97.4386 175.609C97.4386 178.02 95.4665 179.992 93.0562 179.992H86.349V186.699C86.349 189.109 84.377 191.081 81.9667 191.081H80.3507C77.94 191.081 75.968 189.109 75.968 186.699V179.992H69.2611C66.8504 179.992 64.8785 178.02 64.8785 175.609V173.994C64.8785 171.583 66.8504 169.611 69.2611 169.611H75.968V162.904C75.968 160.493 77.94 158.521 80.3507 158.521H81.9667C84.377 158.521 86.349 160.493 86.349 162.904V169.611H93.0562C95.4665 169.611 97.4386 171.583 97.4386 173.994V175.609Z" fill="#1F193D"/>
<path d="M141.281 158.563C141.197 158.414 141.037 158.343 140.88 158.387C137.327 159.372 132.905 161.718 128.747 164.824C128.429 165.061 128.406 165.516 128.565 165.801C128.669 165.985 128.835 166.082 129.028 166.082C129.107 166.082 129.191 166.066 129.276 166.032C132.151 164.881 137.525 162.434 141.222 158.979C141.338 158.87 141.361 158.707 141.281 158.563Z" fill="#1F193D"/>
<path d="M132.211 160.159C132.26 160.128 132.318 160.093 132.382 160.055C132.856 159.77 133.65 159.291 133.785 158.71C133.834 158.501 133.794 158.296 133.668 158.101C133.54 157.902 133.37 157.783 133.165 157.748C132.616 157.656 131.957 158.17 131.519 158.511C131.445 158.569 131.379 158.62 131.322 158.661C130.319 159.393 129.213 160.097 127.94 160.815C127.523 161.05 127.5 161.475 127.656 161.77C127.785 162.015 128.038 162.201 128.337 162.201C128.45 162.201 128.57 162.175 128.692 162.115C129.898 161.523 131.082 160.865 132.211 160.159Z" fill="#1F193D"/>
<path d="M93.6701 193.934C93.7896 193.577 93.5596 193.296 93.2948 193.184C93.0342 193.076 92.6746 193.109 92.5045 193.443C89.3356 199.693 90.4577 207.573 95.2334 212.606C95.3955 212.777 95.593 212.848 95.7906 212.848C96.0138 212.848 96.2365 212.757 96.4079 212.613C96.6934 212.373 96.8529 211.957 96.5654 211.569C92.595 206.223 91.5937 200.125 93.6701 193.934Z" fill="#1F193D"/>
<path d="M205.57 203.005C206.033 199.84 205.999 193.852 202.94 191.483C202.695 191.293 202.338 191.258 202.069 191.397C201.848 191.512 201.727 191.73 201.74 191.994C201.789 193.05 202.123 193.905 202.477 194.811C202.674 195.314 202.878 195.835 203.035 196.404C203.658 198.658 203.772 201.098 203.365 203.459C202.995 205.6 202.03 207.347 201.097 209.037C200.497 210.123 199.877 211.246 199.407 212.476C199.353 212.618 199.386 212.757 199.496 212.857C199.579 212.933 199.692 212.973 199.802 212.973C199.865 212.973 199.926 212.961 199.98 212.934C203.498 211.221 205.149 205.887 205.57 203.005Z" fill="#1F193D"/>
<path d="M216.163 170.996C219.901 170.996 222.942 167.955 222.942 164.218C222.942 160.48 219.901 157.438 216.163 157.438C212.425 157.438 209.384 160.48 209.384 164.218C209.384 167.955 212.425 170.996 216.163 170.996ZM216.163 158.727C219.195 158.727 221.654 161.185 221.654 164.218C221.654 167.25 219.195 169.708 216.163 169.708C213.131 169.708 210.673 167.25 210.673 164.218C210.673 161.185 213.131 158.727 216.163 158.727Z" fill="#1F193D"/>
<path d="M204.937 181.978C208.675 181.978 211.716 178.937 211.716 175.199C211.716 171.461 208.675 168.42 204.937 168.42C201.199 168.42 198.158 171.461 198.158 175.199C198.158 178.937 201.199 181.978 204.937 181.978ZM204.937 169.708C207.97 169.708 210.428 172.166 210.428 175.199C210.428 178.231 207.97 180.689 204.937 180.689C201.905 180.689 199.447 178.231 199.447 175.199C199.447 172.166 201.905 169.708 204.937 169.708Z" fill="#1F193D"/>
<path d="M220.8 175.199C220.8 178.937 223.841 181.978 227.579 181.978C231.317 181.978 234.358 178.937 234.358 175.199C234.358 171.461 231.317 168.42 227.579 168.42C223.841 168.42 220.8 171.461 220.8 175.199ZM227.579 169.708C230.612 169.708 233.07 172.166 233.07 175.199C233.07 178.231 230.612 180.689 227.579 180.689C224.547 180.689 222.089 178.231 222.089 175.199C222.089 172.166 224.547 169.708 227.579 169.708Z" fill="#1F193D"/>
<path d="M216.599 179.062C212.861 179.062 209.819 182.102 209.819 185.84C209.819 189.578 212.861 192.619 216.599 192.619C220.336 192.619 223.378 189.578 223.378 185.84C223.378 182.103 220.336 179.062 216.599 179.062ZM216.599 191.331C213.567 191.331 211.108 188.873 211.108 185.84C211.108 182.808 213.566 180.35 216.599 180.35C219.631 180.35 222.089 182.808 222.089 185.84C222.089 188.873 219.631 191.331 216.599 191.331Z" fill="#1F193D"/>
<path d="M92.0313 137.121C86.4625 134.514 79.7069 134.262 73.9606 136.451C68.2141 138.639 63.336 143.319 60.9124 148.97C60.3877 150.193 59.7057 152.446 61.0309 153.793C61.3006 154.067 61.6483 154.275 62.0644 154.412C62.0728 154.415 62.0816 154.416 62.0904 154.416C62.1203 154.416 62.1485 154.4 62.1635 154.373C67.3606 144.858 78.1698 136.578 89.6239 140.884C92.4835 141.96 95.0267 143.601 97.1827 145.761C97.2035 145.782 97.234 145.79 97.2623 145.782C97.2909 145.775 97.3134 145.753 97.3215 145.725C98.4591 141.741 95.3347 138.668 92.0313 137.121Z" fill="#04F0FF"/>
<path d="M234.263 148.97C231.839 143.319 226.961 138.639 221.214 136.451C215.468 134.262 208.713 134.513 203.144 137.121C199.714 138.727 196.545 141.913 197.939 146.036C197.992 146.193 198.057 146.331 198.119 146.463L198.134 146.496C198.146 146.521 198.17 146.539 198.197 146.543C198.222 146.547 198.252 146.537 198.271 146.516C200.576 143.98 203.363 142.085 206.554 140.885C217.799 136.659 228.552 144.702 233.787 153.963C233.799 153.984 233.819 153.999 233.843 154.003C233.849 154.004 233.854 154.005 233.86 154.005C233.878 154.005 233.896 153.999 233.911 153.987L233.957 153.951C234.02 153.903 234.085 153.853 234.144 153.793C235.469 152.447 234.787 150.193 234.263 148.97Z" fill="#04F0FF"/>
<path d="M131.941 149.444L106.9 151.304C105.715 151.393 104.823 152.428 104.911 153.613L105.046 155.433C105.048 155.457 105.061 155.479 105.08 155.493C105.094 155.504 105.112 155.51 105.129 155.51C105.135 155.51 105.142 155.509 105.147 155.508C106.33 155.241 107.55 155.021 108.878 154.834C110.996 154.539 113.101 154.363 114.881 154.23C121.239 153.746 127.775 153.475 134.308 153.425C134.332 153.425 134.353 153.416 134.369 153.399C134.384 153.382 134.393 153.359 134.391 153.336L134.249 151.432C134.161 150.248 133.123 149.347 131.941 149.444Z" fill="#04F0FF"/>
<path d="M185.639 154.625C187.115 154.794 188.452 154.994 189.727 155.237C189.733 155.239 189.738 155.239 189.743 155.239C189.761 155.239 189.779 155.233 189.794 155.221C189.813 155.206 189.825 155.184 189.826 155.16L189.977 152.374C190.008 151.799 189.814 151.247 189.429 150.818C189.045 150.39 188.517 150.137 187.942 150.106L162.869 148.747C162.296 148.719 161.742 148.91 161.314 149.295C160.885 149.679 160.632 150.207 160.601 150.782L160.463 153.324C160.462 153.347 160.47 153.369 160.486 153.386C160.501 153.402 160.523 153.412 160.546 153.412C167.457 153.433 174.438 153.708 181.293 154.23C182.48 154.319 184.047 154.445 185.639 154.625Z" fill="#04F0FF"/>
<path d="M112.003 183.58C104.676 183.58 98.7363 189.52 98.7363 196.846C98.7363 204.173 104.676 210.113 112.003 210.113C119.33 210.113 125.269 204.173 125.269 196.846C125.269 189.52 119.33 183.58 112.003 183.58ZM112.003 208.217C105.723 208.216 100.633 203.126 100.633 196.846C100.633 190.566 105.723 185.477 112.003 185.476C118.282 185.477 123.373 190.567 123.373 196.846C123.373 203.126 118.282 208.216 112.003 208.217Z" fill="#FFD004"/>
<path d="M112.003 186.757C109.308 186.758 106.775 187.807 104.869 189.712C102.963 191.618 101.914 194.152 101.913 196.847C101.914 199.541 102.963 202.075 104.869 203.981C106.775 205.887 109.309 206.936 112.003 206.937C114.697 206.936 117.231 205.887 119.138 203.981C121.043 202.075 122.093 199.541 122.093 196.847C122.092 194.152 121.043 191.619 119.138 189.712C117.231 187.807 114.697 186.758 112.003 186.757Z" fill="#FFD004"/>
<path d="M183.372 186.757C180.677 186.758 178.144 187.807 176.237 189.712C174.332 191.619 173.282 194.153 173.282 196.847C173.282 199.541 174.332 202.074 176.237 203.981C178.144 205.887 180.678 206.936 183.372 206.937C186.066 206.936 188.6 205.887 190.506 203.981C192.412 202.075 193.461 199.541 193.462 196.847C193.461 194.152 192.412 191.619 190.506 189.712C188.6 187.807 186.066 186.758 183.372 186.757Z" fill="#FFD004"/>
<path d="M183.372 183.58C176.045 183.58 170.105 189.52 170.105 196.846C170.105 204.173 176.045 210.113 183.372 210.113C190.699 210.113 196.638 204.173 196.638 196.846C196.638 189.52 190.699 183.58 183.372 183.58ZM183.372 208.217C177.092 208.216 172.002 203.126 172.002 196.846C172.002 190.566 177.092 185.477 183.372 185.476C189.652 185.477 194.742 190.567 194.742 196.846C194.742 203.126 189.652 208.216 183.372 208.217Z" fill="#FFD004"/>
<path d="M150.89 177.638H142.568C140.175 177.638 138.229 179.584 138.229 181.977C138.229 184.37 140.175 186.317 142.568 186.317H150.89C153.283 186.317 155.23 184.37 155.23 181.977C155.23 179.584 153.283 177.638 150.89 177.638Z" fill="#FFD004"/>
<path d="M93.0558 169.528H86.4318V162.904C86.4318 160.442 84.4286 158.438 81.9663 158.438H80.3503C77.8876 158.438 75.8845 160.442 75.8845 162.904V169.528H69.2608C66.7981 169.528 64.7949 171.531 64.7949 173.994V175.61C64.7949 178.072 66.7982 180.075 69.2608 180.075H75.8845V186.699C75.8845 189.162 77.8876 191.165 80.3503 191.165H81.9663C84.4286 191.165 86.4318 189.162 86.4318 186.699V180.075H93.0558C95.5182 180.075 97.5213 178.072 97.5213 175.61V173.994C97.5213 171.531 95.5182 169.528 93.0558 169.528Z" fill="#04FF2C"/>
<path d="M220.102 168.159C222.278 165.982 222.278 162.453 220.102 160.277C217.925 158.1 214.396 158.1 212.219 160.277C210.043 162.453 210.043 165.982 212.219 168.159C214.396 170.336 217.925 170.336 220.102 168.159Z" fill="#04FF2C"/>
<path d="M204.937 169.625C201.864 169.625 199.363 172.125 199.363 175.199C199.363 178.272 201.864 180.772 204.937 180.772C208.01 180.772 210.511 178.272 210.511 175.199C210.511 172.125 208.01 169.625 204.937 169.625Z" fill="#04FF2C"/>
<path d="M227.58 169.625C224.506 169.625 222.006 172.125 222.006 175.199C222.006 178.272 224.506 180.772 227.58 180.772C230.653 180.772 233.153 178.272 233.153 175.199C233.153 172.125 230.653 169.625 227.58 169.625Z" fill="#04FF2C"/>
<path d="M217.898 191.268C220.893 190.558 222.746 187.555 222.036 184.559C221.326 181.564 218.323 179.711 215.327 180.421C212.332 181.131 210.479 184.134 211.189 187.13C211.898 190.125 214.902 191.978 217.898 191.268Z" fill="#04FF2C"/>
<path d="M157.864 141.396H154.48L153.389 136.715C153.38 136.677 153.347 136.65 153.308 136.65H141.918C141.878 136.65 141.844 136.679 141.836 136.719L140.973 141.396H137.314C137.268 141.396 137.23 141.434 137.23 141.48V144.327C137.23 144.373 137.268 144.41 137.314 144.41H140.417L139.881 147.321H137.314C137.268 147.321 137.23 147.358 137.23 147.404V150.251C137.23 150.297 137.268 150.334 137.314 150.334H139.325L138.772 153.328C138.768 153.352 138.774 153.377 138.79 153.396C138.806 153.414 138.829 153.425 138.854 153.426C142.022 153.452 145.127 153.526 148.089 153.645C151.004 153.527 154.062 153.454 157.179 153.426C157.204 153.426 157.228 153.414 157.243 153.395C157.259 153.375 157.265 153.349 157.259 153.324L156.562 150.334H157.864C157.91 150.334 157.947 150.297 157.947 150.251V147.404C157.947 147.358 157.91 147.321 157.864 147.321H155.86L155.182 144.41H157.864C157.91 144.41 157.947 144.373 157.947 144.327V141.48C157.947 141.434 157.91 141.396 157.864 141.396Z" fill="#FF0000"/>
<path d="M89.4611 21.739C88.6473 20.8341 87.2494 20.7601 86.3445 21.5739L86.1918 21.711C85.2873 22.5247 85.2133 23.9231 86.0267 24.8278L104.133 44.9612C104.525 45.3979 105.066 45.6558 105.657 45.687C105.697 45.689 105.737 45.6902 105.777 45.6902C106.324 45.6902 106.843 45.4924 107.25 45.1262L107.402 44.9891C107.839 44.5966 108.097 44.0554 108.128 43.4647C108.159 42.8745 107.96 42.3091 107.568 41.8725L89.4611 21.739Z" fill="#FF0000"/>
<path d="M84.0394 26.6145C83.2259 25.7091 81.8277 25.6347 80.9228 26.4495L80.7701 26.5866C79.8654 27.4005 79.7912 28.7987 80.6052 29.7036L98.7112 49.837C99.1037 50.2737 99.6449 50.5316 100.236 50.5628C100.276 50.5647 100.316 50.566 100.356 50.566C100.902 50.566 101.421 50.3681 101.828 50.002L101.98 49.8649C102.417 49.4724 102.675 48.9312 102.706 48.3405C102.737 47.7503 102.538 47.1845 102.145 46.7483L84.0394 26.6145Z" fill="#FF0000"/>
<path d="M59.2517 259.314C58.4031 258.873 57.4694 258.609 56.5663 258.354C55.8584 258.154 55.1264 257.947 54.4415 257.657C50.3146 255.895 48.3178 251.192 48.1696 247.312C48.0043 242.979 49.5693 238.827 51.2853 234.986C51.6007 234.279 51.9244 233.574 52.2486 232.868C53.6979 229.711 55.1962 226.447 55.9133 222.997C56.6131 219.657 56.5644 216.131 55.7717 212.802C55.1661 210.238 54.1645 208.157 52.7941 206.616C52.773 206.592 52.7402 206.582 52.7106 206.591C52.68 206.599 52.657 206.624 52.6504 206.655C50.9451 214.92 48.5445 222.966 45.8116 231.873C43.4251 239.652 41.5361 247.181 44.5933 253.782C47.0699 259.124 52.143 262.055 58.7325 262.055C59.6121 262.055 60.5191 262.003 61.4498 261.897C61.4749 261.895 61.4973 261.88 61.5109 261.859C61.5243 261.838 61.5272 261.811 61.5191 261.788C61.1747 260.799 60.327 259.874 59.2517 259.314Z" fill="#FF0000"/>
<path d="M250.365 231.874C249.98 230.618 249.596 229.359 249.214 228.101C249.045 227.541 248.876 226.98 248.707 226.419C248.576 225.981 248.445 225.543 248.315 225.104C248.103 224.393 247.894 223.682 247.686 222.97C247.608 222.703 247.531 222.436 247.453 222.169C247.186 221.245 246.922 220.321 246.663 219.394L246.607 219.188C246.359 218.297 246.11 217.381 245.866 216.464L245.745 216.011C245.466 214.956 245.218 213.989 244.987 213.056L244.956 212.932C244.733 212.028 244.505 211.073 244.279 210.091L244.189 209.7C243.964 208.714 243.749 207.728 243.551 206.769L243.526 206.655C243.52 206.624 243.497 206.6 243.466 206.592C243.435 206.584 243.403 206.593 243.383 206.617C242.013 208.156 241.011 210.238 240.405 212.803C239.613 216.131 239.564 219.656 240.264 222.997C240.981 226.447 242.479 229.711 243.928 232.868C244.252 233.574 244.576 234.279 244.892 234.987C246.608 238.828 248.172 242.979 248.007 247.313C247.859 251.193 245.862 255.896 241.735 257.657C241.051 257.947 240.319 258.154 239.611 258.354C238.708 258.609 237.774 258.873 236.925 259.314C235.851 259.873 235.004 260.797 234.664 261.773C234.661 261.779 234.657 261.788 234.656 261.795C234.65 261.818 234.655 261.843 234.668 261.862C234.681 261.882 234.703 261.895 234.727 261.898C234.745 261.9 234.764 261.901 234.783 261.902L234.826 261.906C235.247 261.952 235.627 261.985 235.987 262.007C236.015 262.009 236.043 262.01 236.071 262.011L236.141 262.013C236.472 262.031 236.81 262.042 237.145 262.046C237.173 262.046 237.201 262.046 237.23 262.046C237.298 262.046 237.367 262.045 237.435 262.045L237.54 262.044C237.806 262.042 238.066 262.035 238.313 262.024C238.453 262.018 238.593 262.012 238.733 262.003C238.974 261.988 239.228 261.966 239.532 261.934L239.657 261.922C239.731 261.916 239.805 261.908 239.878 261.9C240.258 261.853 240.628 261.798 240.977 261.734C241.03 261.724 241.081 261.713 241.133 261.702L241.243 261.679C241.552 261.618 241.824 261.557 242.075 261.495C242.179 261.469 242.282 261.441 242.384 261.413L242.461 261.392C242.702 261.326 242.941 261.255 243.169 261.181L243.206 261.169C243.32 261.132 243.435 261.095 243.548 261.056C243.792 260.97 244.046 260.873 244.323 260.758C244.359 260.743 244.396 260.729 244.432 260.715C244.482 260.695 244.532 260.676 244.582 260.654C244.908 260.512 245.238 260.354 245.563 260.183C245.617 260.154 245.669 260.124 245.722 260.094L245.823 260.036C246.08 259.894 246.309 259.759 246.522 259.624C246.629 259.555 246.736 259.484 246.842 259.412C247.044 259.276 247.252 259.127 247.462 258.967L247.532 258.914C247.606 258.858 247.68 258.801 247.753 258.743C248 258.544 248.245 258.332 248.48 258.111C248.497 258.095 248.515 258.08 248.532 258.065C248.555 258.046 248.577 258.026 248.599 258.006C248.86 257.756 249.117 257.485 249.386 257.179C249.43 257.13 249.471 257.079 249.513 257.027L249.588 256.936C249.778 256.709 249.958 256.481 250.123 256.256C250.198 256.152 250.272 256.047 250.346 255.94C250.507 255.708 250.667 255.459 250.822 255.201L250.883 255.101C250.923 255.036 250.963 254.97 251.002 254.903C251.226 254.509 251.417 254.143 251.584 253.782C254.641 247.181 252.752 239.652 250.365 231.874Z" fill="#FF0000"/>
<path d="M110.707 38.127C110.721 38.1435 110.742 38.1534 110.764 38.1546H110.768C110.789 38.1546 110.809 38.1472 110.824 38.1331L113.996 35.2803C114.013 35.2657 114.023 35.2449 114.024 35.2231C114.025 35.201 114.017 35.1792 114.002 35.163L96.8129 16.0493C96.782 16.0149 96.7296 16.0119 96.6955 16.0431L93.5237 18.8957C93.4895 18.9262 93.4866 18.9789 93.5175 19.013L110.707 38.127Z" fill="#322780"/>
<path d="M244.967 234.952C243.222 231.039 241.218 227.179 240.345 222.98C239.645 219.639 239.695 216.143 240.486 212.821C241.013 210.589 241.941 208.362 243.445 206.671C243.453 206.709 243.462 206.747 243.47 206.785C242.913 204.094 242.43 201.388 242.051 198.662C240.155 185.059 240.733 170.891 235.819 158.064C235.284 156.665 234.625 155.275 233.86 153.921C228.45 144.35 217.659 136.621 206.525 140.806C203.145 142.077 200.411 144.038 198.21 146.46C195.966 148.93 194.276 151.879 193.03 155.074C192.93 155.33 192.836 155.591 192.742 155.851C191.753 155.577 190.752 155.348 189.743 155.155C188.39 154.897 187.023 154.699 185.649 154.542C185.067 156.892 184.385 159.219 183.608 161.514C182.381 165.137 180.804 168.309 176.695 169.11C170.541 170.309 164.032 168.987 157.855 168.641C150.837 168.255 143.801 168.214 136.778 168.505C133.333 168.651 129.87 168.814 126.443 169.196C123.402 169.532 120.107 170.209 117.261 168.669C115.784 167.869 114.52 166.728 113.466 165.41C112.48 164.173 111.684 162.778 111.066 161.355C110.184 159.31 109.416 157.06 108.866 154.751C107.61 154.928 106.362 155.149 105.13 155.426C104.562 155.554 103.998 155.694 103.438 155.85C102.043 152.019 100.041 148.505 97.2418 145.702C95.1728 143.629 92.6714 141.942 89.6536 140.806C78.3614 136.561 67.422 144.574 62.0907 154.333C61.4222 155.557 60.8367 156.806 60.355 158.065C55.446 170.891 56.0188 185.059 54.1234 198.663C53.7505 201.349 53.278 204.017 52.7325 206.671C54.2367 208.362 55.1643 210.589 55.6912 212.821C56.4823 216.144 56.5324 219.639 55.8323 222.98C54.9596 227.18 52.9551 231.039 51.2099 234.952C49.4598 238.87 47.9237 243.029 48.0872 247.315C48.2509 251.601 50.4692 256.051 54.4097 257.733C55.9734 258.396 57.7096 258.606 59.214 259.387C60.2004 259.901 61.0866 260.796 61.4411 261.815C65.4002 261.365 69.3452 259.946 72.5361 257.91C78.5175 254.101 83.5582 248.901 87.7673 242.815C93.0551 235.174 97.0314 226.139 99.9194 216.716C107.673 219.282 116.127 218.857 122.443 213.73C125.693 211.089 128.124 207.567 131.315 204.853C140.92 196.685 155.323 196.728 164.864 204.853C168.05 207.567 170.482 211.09 173.736 213.73C180.051 218.858 188.507 219.283 196.262 216.714C199.149 226.14 203.116 235.176 208.407 242.815C212.621 248.901 217.661 254.101 223.638 257.91C226.832 259.947 230.779 261.362 234.738 261.811C235.093 260.794 235.978 259.9 236.964 259.387C238.468 258.606 240.204 258.396 241.768 257.733C245.709 256.051 247.927 251.601 248.091 247.315C248.254 243.029 246.718 238.87 244.967 234.952ZM62.4828 257.369C61.6313 257.601 61.2727 256.285 62.1197 256.051C70.6926 253.678 78.0094 248.444 83.3687 241.375C88.5931 234.483 91.2341 226.628 93.2155 218.322C93.3825 217.622 94.5602 217.766 94.4849 218.494C92.6762 236.041 79.6165 252.713 62.4828 257.369ZM73.9635 237.318C74.858 237.091 75.7082 236.725 76.6289 236.622C77.0052 236.581 77.1909 237.049 77.037 237.333C76.0477 239.16 72.8499 239.917 70.9855 239.241C70.3156 238.998 70.1054 237.787 70.9855 237.659C71.9879 237.514 72.9706 237.569 73.9635 237.318ZM73.9008 232.047C74.8931 231.436 75.9639 231.109 77.0727 230.764C77.9593 230.489 79.0018 230.09 79.8605 230.606C80.0684 230.731 80.1127 230.977 80.0119 231.184C79.5814 232.072 78.4502 232.316 77.57 232.568C76.4521 232.89 75.3872 233.193 74.2205 233.228C73.5737 233.247 73.3819 232.366 73.9008 232.047ZM95.2936 212.549C90.4936 207.49 89.4756 199.6 92.5783 193.481C92.8632 192.92 93.7891 193.317 93.5909 193.908C91.4714 200.228 92.565 206.322 96.4983 211.619C97.0266 212.331 95.8782 213.164 95.2936 212.549ZM93.0556 182.568H88.9251V186.698C88.9251 190.536 85.8033 193.658 81.9661 193.658H80.3501C76.5125 193.658 73.3907 190.536 73.3907 186.698V182.568H69.2608C65.423 182.568 62.3012 179.446 62.3012 175.609V173.993C62.3012 170.155 65.423 167.033 69.2608 167.033H73.3907V162.903C73.3907 159.066 76.5125 155.944 80.3501 155.944H81.9661C85.8033 155.944 88.9251 159.066 88.9251 162.903V167.033H93.0556C96.8932 167.033 100.015 170.155 100.015 173.993V175.609C100.015 179.446 96.8932 182.568 93.0556 182.568ZM112.002 210.113C104.676 210.113 98.7363 204.173 98.7363 196.846C98.7363 189.519 104.676 183.58 112.002 183.58C119.33 183.58 125.269 189.519 125.269 196.846C125.269 204.173 119.33 210.113 112.002 210.113ZM150.89 187.522H142.568C139.511 187.522 137.023 185.034 137.023 181.977C137.023 178.919 139.511 176.432 142.568 176.432H150.89C153.948 176.432 156.435 178.919 156.435 181.977C156.435 185.034 153.948 187.522 150.89 187.522ZM234.359 175.198C234.359 178.936 231.317 181.977 227.579 181.977C223.841 181.977 220.8 178.936 220.8 175.198C220.8 171.46 223.841 168.419 227.579 168.419C231.317 168.419 234.359 171.46 234.359 175.198ZM222.644 235.023C224.065 234.547 225.377 234.079 226.897 234.129C227.397 234.145 227.532 234.763 227.142 235.032C225.89 235.897 224.528 236.211 223.073 236.581C222.057 236.839 221.664 235.351 222.644 235.023ZM216.598 192.619C212.861 192.619 209.819 189.578 209.819 185.84C209.819 182.102 212.861 179.061 216.598 179.061C220.336 179.061 223.377 182.102 223.377 185.84C223.377 189.578 220.336 192.619 216.598 192.619ZM224.547 240.739C225.311 240.477 226.141 240.512 226.939 240.417C227.749 240.321 228.546 240.229 229.35 240.148C229.752 240.108 229.982 240.699 229.684 240.954C228.324 242.118 226.102 242.864 224.375 242.057C223.771 241.775 224.016 240.922 224.547 240.739ZM216.163 157.438C219.901 157.438 222.942 160.479 222.942 164.217C222.942 167.955 219.901 170.996 216.163 170.996C212.425 170.996 209.384 167.955 209.384 164.217C209.384 160.479 212.425 157.438 216.163 157.438ZM183.371 210.113C176.044 210.113 170.105 204.173 170.105 196.846C170.105 189.519 176.045 183.58 183.371 183.58C190.698 183.58 196.638 189.519 196.638 196.846C196.638 204.173 190.698 210.113 183.371 210.113ZM204.937 168.419C208.674 168.419 211.716 171.46 211.716 175.198C211.716 178.936 208.674 181.977 204.937 181.977C201.199 181.977 198.158 178.936 198.158 175.198C198.158 171.46 201.199 168.419 204.937 168.419ZM199.485 212.506C200.69 209.35 202.839 206.996 203.447 203.474C203.851 201.133 203.749 198.672 203.116 196.382C202.678 194.799 201.899 193.624 201.823 191.991C201.795 191.392 202.5 191.247 202.89 191.549C205.82 193.818 205.983 199.604 205.488 202.993C204.997 206.354 203.188 211.279 199.944 212.859C199.724 212.966 199.379 212.784 199.485 212.506ZM233.591 257.369C216.457 252.713 203.398 236.041 201.589 218.494C201.513 217.758 202.693 217.63 202.858 218.322C204.841 226.634 207.486 234.473 212.705 241.375C218.054 248.447 225.388 253.68 233.954 256.051C234.802 256.286 234.441 257.6 233.591 257.369Z" fill="black"/>
</svg>
