<svg width="268" height="253" viewBox="0 0 268 253" fill="none" xmlns="http://www.w3.org/2000/svg">
<path d="M194.126 41.9257C180.808 17.2427 154.715 0.469727 124.701 0.469727C88.1323 0.469727 57.3832 25.3702 48.4735 59.1389C20.5629 69.5855 0.691162 96.4964 0.691162 128.053C0.691162 142.925 5.10868 156.763 12.697 168.336C12.6103 169.722 12.5612 171.119 12.5612 172.527C12.5612 209.011 42.1369 238.587 78.621 238.587C93.1246 238.587 106.533 233.909 117.429 225.986C131.991 234.211 148.808 238.911 166.725 238.911C222.166 238.911 267.11 193.967 267.11 138.525C267.11 92.5829 236.248 53.8505 194.126 41.9257Z" fill="#D7E7F4"/>
<path d="M203.455 102.455C203.436 102.564 203.385 102.653 203.321 102.73C203.117 102.985 202.747 103.074 202.435 102.883C200.514 101.671 195.557 100.197 185.311 106.022C184.622 106.411 183.945 106.787 183.275 107.145C170.324 114.029 160.735 114.405 153.813 111.598C148.243 109.333 142.986 115.924 140.836 119.139C140.485 119.656 139.681 119.445 139.623 118.826L138.22 103.457L135.534 74.1473C135.534 74.0962 135.521 74.0516 135.508 74.0069L130.028 57.0361C129.9 56.6406 130.155 56.2259 130.57 56.1748C132.841 55.8813 139.496 55.3071 143.011 58.0888C143.018 58.0888 143.018 58.0952 143.018 58.0952C147.299 61.483 150.52 70.2108 151.879 74.6449C153.245 79.079 160.862 89.7655 165.188 93.064C169.507 96.3625 175.307 99.7694 183.263 98.5189C191.225 97.2684 198.594 96.7644 200.661 97.9511C201.803 98.6082 202.613 99.1058 203.066 100.082C203.353 100.937 203.443 101.779 203.455 102.455Z" fill="#8C71B5"/>
<path d="M183.275 107.145C170.324 114.029 160.735 114.405 153.812 111.598C148.243 109.333 142.986 115.924 140.836 119.139C140.485 119.656 139.681 119.445 139.623 118.827L138.22 103.457C140.178 89.5233 142.507 73.5669 142.507 73.5669C142.507 73.5669 147.483 90.0082 149.608 99.1954C151.733 108.376 159.822 112.683 165.679 112.319C165.679 112.319 158.253 102.175 156.888 93.6766C155.522 85.1785 159.612 108.676 172.806 108.07C177.023 107.872 180.5 107.528 183.275 107.145Z" fill="#8C71B5"/>
<path d="M98.2126 149.829C98.2126 149.829 98.4098 151.119 94.2972 152.925C90.1847 154.73 86.5742 156.084 86.5742 158.452C86.5742 159.707 97.1057 159.896 100.416 159.344C103.726 158.792 108.239 158.904 109.693 158.452C111.148 158.001 109.744 149.866 106.734 147.759C103.726 145.653 98.2126 149.829 98.2126 149.829Z" fill="#B74821"/>
<path d="M106.501 140.337C106.192 139.691 105.915 138.278 105.698 136.855C105.47 135.148 105.249 133.362 105.076 131.595C104.328 123.988 104.783 119.075 103.981 116.166C112.277 112.23 118.604 112.586 126.875 106.635L118.917 91.7412C118.917 91.7412 95.8017 100.683 91.8263 104.455C88.8118 107.315 86.2687 109.545 87.6251 114.71C88.7677 119.06 91.7944 129.788 93.2701 135.873C93.2739 135.893 95.669 149.43 97.0056 149.765C98.3428 150.099 105.297 149.163 106.859 148.227C108.47 147.261 107.37 146.288 107.062 144.482C106.756 142.677 107.237 141.875 106.501 140.337Z" fill="#0D2B4D"/>
<path d="M148.361 171.832C148.361 171.832 147.809 175.092 146.756 176.747C145.703 178.401 138.556 178.853 138.581 181.561C138.595 183.075 143.045 183.065 149.765 182.965C156.485 182.865 156.986 179.062 159.896 177.403C162.804 175.744 164.359 173.888 157.99 167.869C151.62 161.852 148.361 171.832 148.361 171.832Z" fill="#D15828"/>
<path d="M157.991 163.208C158.072 161.352 157.795 160.148 156.153 158.092C155.53 157.311 155.141 156.322 154.762 155.102C154.674 154.758 154.585 154.413 154.499 154.063C154.206 152.869 153.754 151.519 153.205 150.089C152.878 149.183 152.488 148.211 152.003 147.166C152.001 147.162 151.999 147.158 151.997 147.154C149.078 140.445 145.626 134.609 145.425 133.218C145.15 131.31 145.083 117.017 145.154 113.129C145.226 109.241 144.068 99.3872 144.068 99.3872L120.978 96.1558C120.978 96.1558 124.489 118.47 126.394 126.294C128.3 134.117 128.085 137.781 133.609 147.785C137.02 153.963 139.767 158.377 142.174 162.734C142.18 162.746 144.181 167.071 144.833 168.923C145.441 170.654 146.187 172.772 148.602 172.786C148.749 172.799 148.934 172.788 149.149 172.757C152.004 172.434 153.675 171.236 153.675 171.236C153.675 171.236 158.273 169.375 158.574 168.02C158.875 166.668 157.909 165.064 157.991 163.208Z" fill="#1C3E60"/>
<path d="M120.005 57.0116C119.628 56.9542 113.589 60.2814 112.444 60.1302C111.181 59.9637 109.376 58.7145 107.304 57.9667C105.231 57.219 99.918 52.2713 98.3135 50.7816C96.7089 49.2925 96.1066 48.1173 94.1007 49.6077C92.0949 51.098 90.891 52.5591 91.1583 53.5339C91.4256 54.5081 94.398 59.0915 95.7353 61.0974C97.0725 63.1033 106.818 69.4029 110.672 69.8642C114.525 70.3254 123.753 69.6689 123.753 69.3621C123.753 69.0552 120.005 57.0116 120.005 57.0116Z" fill="#CCC8C9"/>
<path d="M144.6 99.7628C144.332 101.46 141.008 103.419 136.446 103.693C134.705 103.801 132.778 103.655 130.774 103.157C125.587 101.868 122.251 98.6463 120.764 96.9109C120.19 96.2346 119.565 95.5902 118.927 94.965C117.817 93.8868 115.781 93.0765 116.707 88.7126C117.153 86.6455 117.485 85.0058 117.67 83.5959C117.734 83.1684 117.778 82.7601 117.81 82.3709C117.817 82.2688 117.823 82.1667 117.829 82.0646C117.88 81.3054 117.874 80.6036 117.804 79.9018C117.715 78.9703 117.517 78.0516 117.198 77.0372C116.885 76.0292 116.636 74.8999 116.451 73.6941C115.705 68.8134 115.986 62.797 116.707 59.6581C117.613 55.7471 130.073 54.8029 135.004 57.9674C135.004 57.9674 138.973 58.8989 140.727 64.5324C141.231 66.1402 141.684 68.0095 142.073 70.0384C142.227 70.8295 142.373 71.6397 142.507 72.4755C143.241 77.0181 143.694 82.1348 143.777 86.9134C143.783 87.2197 143.79 87.5132 143.796 87.8003C143.822 88.6424 143.853 89.4144 143.898 90.1354C144.211 95.5966 144.919 97.7722 144.6 99.7628Z" fill="#EDB73E"/>
<path d="M137.509 82.5454C137.509 83.2307 136.954 83.7857 136.269 83.7857C135.584 83.7857 135.029 83.23 135.029 82.5454C135.029 81.8609 135.584 81.3052 136.269 81.3052C136.954 81.3052 137.509 81.8602 137.509 82.5454Z" fill="#F2C56D"/>
<path d="M125.98 86.4683C125.98 87.1535 125.425 87.7086 124.74 87.7086C124.055 87.7086 123.499 87.1535 123.499 86.4683C123.499 85.7831 124.055 85.228 124.74 85.228C125.425 85.228 125.98 85.7831 125.98 86.4683Z" fill="#F2C56D"/>
<path d="M128.116 97.9522C128.116 98.6374 127.56 99.1925 126.876 99.1925C126.191 99.1925 125.635 98.6374 125.635 97.9522C125.635 97.267 126.19 96.7119 126.876 96.7119C127.561 96.7119 128.116 97.267 128.116 97.9522Z" fill="#F2C56D"/>
<path d="M138.75 94.9162C138.75 95.6014 138.194 96.1565 137.509 96.1565C136.824 96.1565 136.269 95.6008 136.269 94.9162C136.269 94.231 136.824 93.6753 137.509 93.6753C138.194 93.6759 138.75 94.231 138.75 94.9162Z" fill="#F2C56D"/>
<path d="M143.898 90.1354C143.388 89.9823 143.018 89.5101 143.018 88.9487C143.018 88.4255 143.343 87.9789 143.796 87.8003C143.821 88.6425 143.853 89.4144 143.898 90.1354Z" fill="#F2C56D"/>
<path d="M142.507 72.4757C142.418 72.4949 142.322 72.5076 142.226 72.5076C141.544 72.5076 140.989 71.9526 140.989 71.2635C140.989 70.6319 141.461 70.1088 142.073 70.0386C142.226 70.8297 142.373 71.6399 142.507 72.4757Z" fill="#F2C56D"/>
<path d="M118.933 81.1396C118.933 81.784 118.442 82.3135 117.81 82.3709C117.816 82.2688 117.823 82.1668 117.829 82.0647C117.88 81.3055 117.874 80.6037 117.804 79.9019C118.442 79.9593 118.933 80.4888 118.933 81.1396Z" fill="#F2C56D"/>
<path d="M120.171 63.9737C120.171 64.6589 119.616 65.2146 118.931 65.2146C118.246 65.2146 117.69 64.6589 117.69 63.9737C117.69 63.2885 118.246 62.7334 118.931 62.7334C119.616 62.7334 120.171 63.2885 120.171 63.9737Z" fill="#F2C56D"/>
<path opacity="0.39" d="M136.446 103.692C134.701 103.799 132.777 103.658 130.773 103.157C125.589 101.868 122.252 98.6489 120.766 96.9097C120.186 96.2341 119.561 95.5929 118.925 94.9683C117.816 93.8875 115.779 93.0773 116.708 88.7152C117.94 82.9464 118.306 80.5489 117.198 77.0367C116.882 76.0293 116.635 74.8981 116.449 73.6935C117.311 73.0798 118.29 72.6804 119.336 72.7818C122.882 73.1366 134.577 74.4368 134.577 74.4368C134.577 74.4368 133.834 77.4309 126.551 79.8962C119.274 82.3614 119.781 87.7136 123.473 90.8538C127.165 93.9941 129.703 94.833 131.707 99.7629C132.67 102.127 134.651 103.207 136.446 103.692Z" fill="#EAA43F"/>
<path d="M75.8859 65.1348L73.5476 62.6849L78.614 57.7563L80.9522 60.2069L75.8859 65.1348Z" fill="#D39735"/>
<path d="M79.1383 61.5776L77.6384 60.0056C74.3157 56.5228 73.663 51.2758 76.0313 47.0855C76.5602 46.1502 77.2237 45.2978 78.0008 44.5558L90.7869 32.356L107.387 49.7542L94.6456 61.9113C93.8385 62.6807 92.9191 63.3226 91.9181 63.8138L91.8601 63.8425C87.5804 65.9454 82.4311 65.0279 79.1383 61.5776Z" fill="#EDB73E"/>
<path d="M76.2158 65.2623L73.436 62.3492C73.1489 62.0487 72.6723 62.0372 72.3718 62.3243L71.5552 63.104L75.3742 67.1061L76.1909 66.3271C76.4914 66.0394 76.5029 65.5628 76.2158 65.2623Z" fill="#EDB73E"/>
<path d="M71.3624 62.9015L65.2083 60.4854L77.6907 73.5682L75.3741 67.1059L71.3624 62.9015Z" fill="#474F54"/>
<path d="M77.6927 73.5689L71.7255 79.2573L67.9122 75.2602L59.2456 66.1757L60.6652 64.8263L63.9719 61.6657L65.2071 60.4873L73.873 69.5648L77.6927 73.5689Z" fill="#2F373D"/>
<path d="M77.6927 73.569L71.7254 79.2574L67.9121 75.2604L73.8729 69.5649L77.6927 73.569Z" fill="#1E2326"/>
<path d="M63.9806 61.6697L60.6719 64.8262L66.1572 70.5761L69.4659 67.4197L63.9806 61.6697Z" fill="#EDB73E"/>
<path d="M107.388 49.755C106.892 50.2284 102.773 46.7175 98.1892 41.9133C93.6052 37.1092 90.2914 32.8301 90.7877 32.3567C91.2841 31.8833 95.4024 35.3942 99.9864 40.1984C104.57 45.0032 107.884 49.2816 107.388 49.755Z" fill="#D39735"/>
<path d="M84.8307 59.5527C83.7059 59.5527 82.9798 59.1336 82.5217 58.6761C82.1504 58.3054 82.1504 57.7038 82.5211 57.3325C82.8918 56.9612 83.4934 56.9605 83.8647 57.3319C84.3483 57.8148 85.447 57.7465 86.878 57.1436C90.9797 55.414 95.5095 50.5639 95.4859 48.581C95.4763 47.7874 95.2932 47.5143 95.223 47.4767C95.061 47.3873 94.5589 47.5462 94.2514 47.737C93.8073 48.0132 93.2216 47.8799 92.9435 47.4377C92.6653 46.9956 92.7935 46.4125 93.2344 46.1318C93.399 46.0271 94.8747 45.1263 96.1264 45.8045C96.9456 46.2472 97.3699 47.1736 97.3865 48.5581C97.4254 51.7442 91.915 57.0824 87.6168 58.8943C86.4901 59.3703 85.5733 59.5527 84.8307 59.5527Z" fill="#D39735"/>
<path d="M98.1242 59.1356L95.8216 56.8381C95.8216 56.8381 94.5577 53.9397 94.0116 52.8474C93.4655 51.7552 92.6852 52.5654 92.6852 52.5654C92.6852 52.5654 91.5056 50.2386 90.1102 52.3619C90.1102 52.3619 88.729 52.0327 88.6333 54.5675C88.6333 54.5675 88.024 54.5624 87.8505 56.2301C87.6776 57.8985 91.1559 60.4454 92.5372 60.9564L94.9673 63.5499L98.1242 59.1356Z" fill="#F28A5C"/>
<path d="M134.541 64.3122C132.312 63.5715 125.773 66.5152 122.925 66.965C120.077 67.4142 117.648 66.9631 116.053 67.441C114.458 67.9188 114.523 65.8709 112.248 66.5797C109.973 67.2885 107.877 64.8858 103.372 62.2502C98.8682 59.6146 99.0934 58.3233 97.2879 58.3807C95.4823 58.4382 93.4541 62.8857 93.1976 64.2395C92.9412 65.5933 103.09 73.708 106.702 75.7024C110.313 77.6968 113.235 78.627 116.053 78.2213C118.871 77.8149 126.767 77.5967 130.743 76.7366C134.719 75.876 135.957 72.9029 136.241 68.9728C136.525 65.0434 134.541 64.3122 134.541 64.3122Z" fill="#F7F2F6"/>
<path d="M203.366 103.916C203.372 103.878 203.385 103.827 203.391 103.75C203.385 103.827 203.379 103.884 203.366 103.916Z" fill="#E84A46"/>
<path d="M203.455 102.455C203.436 102.564 203.385 102.653 203.321 102.729C202.837 100.707 199.825 97.2298 183.869 100.49C162.343 104.886 151.273 76.01 148.626 68.6538C145.972 61.3041 142.507 57.8461 137.512 60.3152C134.022 62.0441 135.03 59.658 135.03 59.658C137.716 57.5016 140.44 57.0231 143.011 58.0885C143.018 58.0885 143.018 58.0949 143.018 58.0949C146.61 59.5815 149.902 64.0921 152.339 71.2696C156.582 83.7872 165.373 92.2279 165.373 92.2279C176.832 102.838 189.33 93.6762 198.728 96.158C201.337 96.8407 202.537 98.4803 203.066 100.082C203.353 100.937 203.443 101.779 203.455 102.455Z" fill="#8C71B5"/>
<path d="M135.03 59.6581C135.03 59.6581 135.203 57.5215 134.27 55.9195L134.049 55.085C134.049 55.085 140.632 56.2212 142.799 58.0064C142.799 58.0064 138.864 56.6213 135.03 59.6581Z" fill="#8C71B5"/>
<path d="M123.104 56.729C123.104 56.729 121.41 58.2985 120.841 57.9852C120.273 57.6726 121.142 56.3079 121.973 55.4836C122.803 54.6593 124.292 54.1177 124.292 54.1177C124.292 54.1177 124.802 54.9152 125.741 55.3713C125.741 55.3713 124.319 55.6163 123.104 56.729Z" fill="#D33327"/>
<path d="M135.529 49.3643C135.529 49.3643 135.529 49.37 135.524 49.3757C135.49 49.4657 135.18 50.2651 134.815 51.6273C134.809 51.6273 134.809 51.633 134.809 51.6387C134.64 52.2633 134.454 53.0117 134.286 53.8615C134.28 53.8615 134.28 53.8673 134.28 53.8673C134.066 54.9085 133.863 56.1073 133.717 57.4356C131.466 59.985 128.213 61.291 124.054 60.6435C123.987 59.7094 124.24 58.7301 124.741 57.8012C125.067 57.1874 125.506 56.5966 126.029 56.0511L126.345 53.2541L135.529 49.3643Z" fill="#F28A5C"/>
<path d="M135.529 49.3643C135.529 49.3643 135.529 49.37 135.523 49.3757C135.49 49.4657 135.18 50.2651 134.815 51.6273C134.809 51.6273 134.809 51.633 134.809 51.6387C134.64 52.2633 134.665 52.0349 134.496 52.8847C133.919 55.8955 129.907 59.608 124.74 57.8018C125.067 57.1881 125.506 56.5973 126.029 56.0518L126.344 53.2548L135.529 49.3643Z" fill="#DD5C43"/>
<path d="M124.054 60.6447L126.394 61.1985C126.394 61.1985 128.367 62.2015 128.333 63.9738C128.333 63.9738 134.82 60.4297 134.987 59.0255C135.153 57.6213 134.006 55.3442 134.006 55.3442L133.648 57.5721C133.648 57.5721 128.3 60.1248 124.054 60.6447Z" fill="#F7F2F6"/>
<path d="M126.109 55.3442C126.109 55.3442 124.489 55.3289 122.75 57.0605C121.012 58.792 120.657 61.7338 120.657 61.7338L122.924 60.1739L124.054 60.6454C124.426 59.0638 125.06 57.5281 126.029 56.0505L126.109 55.3442Z" fill="#F7F2F6"/>
<path d="M140.228 45.5827C140.228 45.5827 140.228 51.3336 134.328 53.6419C134.157 53.7089 133.984 53.7631 133.805 53.8205C133.25 53.9928 132.727 54.0566 132.235 54.0311C130.908 53.9609 129.792 53.24 128.86 52.1873C125.996 48.9398 124.924 42.5407 124.924 42.5407C124.924 42.5407 122.334 41.0095 124.005 38.3044C124.005 38.3044 123.75 35.3887 125.626 34.2531C127.495 33.1111 128.695 33.2131 129.786 32.4093C130.877 31.6118 132.816 31.9435 135.004 35.1527C137.193 38.3618 140.07 36.8242 141.608 40.3013C143.145 43.7784 140.228 45.5827 140.228 45.5827Z" fill="#841A1A"/>
<path d="M134.288 53.636C134.445 52.8774 134.609 52.2075 134.761 51.634C134.761 51.6276 134.761 51.6212 134.767 51.6212C135.132 50.2629 135.436 49.4597 135.467 49.3704C135.473 49.364 135.473 49.3576 135.473 49.3576L131.148 51.2129C130.964 50.7344 130.844 50.4097 130.844 50.3905C130.844 50.3076 133.525 42.7256 133.525 42.7256C133.525 42.7256 136.262 45.3784 140.228 45.5825C140.228 45.5825 140.328 51.4234 134.288 53.636Z" fill="#9E4026"/>
<path d="M124.983 40.8097C124.983 40.8097 121.637 51.6748 124.74 54.669C126.98 56.8305 130.832 55.9239 132.439 55.0154C134.045 54.1075 135.497 51.308 135.497 51.308C135.497 51.308 137.678 51.9198 138.397 49.2613C138.843 47.6089 136.913 46.7272 135.822 48.7094L134.703 48.5588C134.703 48.5588 134.451 47.3664 135.104 46.3188C136.176 44.6007 133.742 44.6428 133.666 43.3183C133.59 41.9938 132.818 41.6882 130.134 41.6882C126.925 41.6882 125.217 40.0435 125.217 40.0435L124.983 40.8097Z" fill="#F28A5C"/>
<path d="M126.239 44.8002C126.104 45.1747 125.8 45.4075 125.559 45.3214C125.318 45.2346 125.231 44.8614 125.365 44.4869C125.499 44.1124 125.804 43.8795 126.045 43.9657C126.287 44.0524 126.373 44.4257 126.239 44.8002Z" fill="#841A1A"/>
<path d="M130.128 46.0795C129.994 46.454 129.689 46.6869 129.448 46.6008C129.207 46.514 129.12 46.1408 129.254 45.7663C129.389 45.3918 129.693 45.1589 129.934 45.2457C130.176 45.3312 130.263 45.705 130.128 46.0795Z" fill="#841A1A"/>
<path d="M126.252 47.0415C126.252 47.0415 125.897 47.8224 125.106 48.4674C124.453 48.9995 124.234 49.0971 125.504 49.8934" stroke="#DD5C43" stroke-width="0.5" stroke-miterlimit="10" stroke-linecap="round"/>
<path d="M129.823 44.3244C129.823 44.3244 131.625 43.9238 131.966 45.8193" stroke="#841A1A" stroke-width="0.5" stroke-miterlimit="10" stroke-linecap="round"/>
<path d="M126.493 43.3413C126.493 43.3413 125.533 42.1367 124.341 43.1339" stroke="#841A1A" stroke-width="0.5" stroke-miterlimit="10" stroke-linecap="round"/>
<path d="M125.786 52.1584C125.786 52.1584 128.122 51.9306 128.766 51.0591C128.766 51.0591 129.069 52.6509 128.122 52.9922C127.174 53.3329 125.8 53.1811 125.786 52.1584Z" fill="white"/>
<path d="M135.527 49.3608C135.527 49.3608 135.527 49.3672 135.521 49.3736C135.489 49.4629 135.183 50.2668 134.813 51.6257C134.807 51.6257 134.807 51.6321 134.807 51.6385C134.653 52.2127 134.488 52.8826 134.328 53.6418C134.156 53.7056 133.983 53.763 133.805 53.8205C133.25 53.9927 132.727 54.0565 132.235 54.031C130.908 53.9608 129.792 53.2399 128.86 52.1872L135.527 49.3608Z" fill="#F28A5C"/>
<path d="M129.725 253.005C192.522 253.005 243.428 250.963 243.428 248.444C243.428 245.925 192.522 243.883 129.725 243.883C66.9288 243.883 16.0222 245.925 16.0222 248.444C16.0222 250.963 66.9288 253.005 129.725 253.005Z" fill="#E3E4E5"/>
<path d="M114.208 158.453H65.4717V248.128H114.208V158.453Z" fill="#8C71B5"/>
<path d="M154.306 182.088H114.208V248.127H154.306V182.088Z" fill="#8C71B5"/>
<path d="M184.704 208.503H154.306V248.127H184.704V208.503Z" fill="#8C71B5"/>
<path d="M129.3 158.453H114.208V182.088H129.3V158.453Z" fill="#8C71B5"/>
<path d="M168.639 182.088H154.306V208.504H168.639V182.088Z" fill="#8C71B5"/>
<path d="M197.441 208.503H184.704V248.127H197.441V208.503Z" fill="#8C71B5"/>
<path d="M181.261 248.13C181.261 248.13 178.272 228.065 182.891 226.659C187.511 225.253 187.03 240.61 184.124 248.13H181.261Z" fill="#D8872E"/>
<path d="M182.355 248.13H179.165C179.165 248.13 173.919 239.215 174.623 233.89C175.328 228.565 182.659 235.35 182.355 248.13Z" fill="#EDB73E"/>
<path d="M186.468 248.13H182.354C182.354 248.13 185.239 234.893 190.575 235.896C195.912 236.905 186.468 248.13 186.468 248.13Z" fill="#EDB73E"/>
<path d="M177.587 235.727C177.621 235.8 180.41 241.801 181.261 248.13H180.692C179.852 241.926 177.114 236.037 177.08 235.964C177.012 235.823 177.074 235.654 177.215 235.592C177.356 235.524 177.525 235.587 177.587 235.727Z" fill="#D8872E"/>
<path d="M190.12 238.106C187.888 240.376 185.938 244.874 184.732 248.131H184.124C185.335 244.823 187.347 240.123 189.72 237.711C189.833 237.598 190.007 237.598 190.12 237.706C190.232 237.818 190.232 237.993 190.12 238.106Z" fill="#D8872E"/>
<path d="M65.42 248.13C65.42 248.13 69.4318 221.205 63.2323 219.318C57.0329 217.432 57.6785 238.039 61.5786 248.13H65.42Z" fill="#D8872E"/>
<path d="M63.9533 248.13H68.233C68.233 248.13 75.2733 236.168 74.3278 229.021C73.3829 221.876 63.545 230.98 63.9533 248.13Z" fill="#EDB73E"/>
<path d="M58.4333 248.13H63.9533C63.9533 248.13 60.0819 230.367 52.9204 231.713C45.7595 233.067 58.4333 248.13 58.4333 248.13Z" fill="#EDB73E"/>
<path d="M70.3506 231.487C70.3053 231.585 66.5622 239.639 65.4202 248.13H66.1838C67.3106 239.805 70.9854 231.903 71.0307 231.805C71.1213 231.616 71.0384 231.389 70.8495 231.306C70.6607 231.214 70.4336 231.297 70.3506 231.487Z" fill="#D8872E"/>
<path d="M53.5328 234.678C56.5269 237.725 59.1433 243.759 60.7619 248.13H61.5786C59.953 243.691 57.2536 237.385 54.0699 234.148C53.9187 233.997 53.6846 233.997 53.5334 234.14C53.3816 234.292 53.3816 234.526 53.5328 234.678Z" fill="#D8872E"/>
</svg>
